<svg xmlns="http://www.w3.org/2000/svg" width="3840" height="2160"><path d="M2054,1174L2112,831L1844,1116Z" fill="#444547" stroke="#444547" stroke-width="1.51"/><path d="M2112,831L1897,741L1844,1116Z" fill="#5a5142" stroke="#5a5142" stroke-width="1.51"/><path d="M2054,1174L2364,1103L2112,831Z" fill="#545656" stroke="#545656" stroke-width="1.51"/><path d="M1844,1116L2077,1459L2054,1174Z" fill="#565b61" stroke="#565b61" stroke-width="1.51"/><path d="M1385,1101L1650,1241L1844,1116Z" fill="#60584a" stroke="#60584a" stroke-width="1.51"/><path d="M2054,1174L2428,1388L2364,1103Z" fill="#6d7176" stroke="#6d7176" stroke-width="1.51"/><path d="M1650,1241L2077,1459L1844,1116Z" fill="#5a5c5e" stroke="#5a5c5e" stroke-width="1.51"/><path d="M2364,1103L2524,905L2112,831Z" fill="#756f64" stroke="#756f64" stroke-width="1.51"/><path d="M2222,319L1829,470L1897,741Z" fill="#9b7e43" stroke="#9b7e43" stroke-width="1.51"/><path d="M2604,1042L2524,905L2364,1103Z" fill="#777673" stroke="#777673" stroke-width="1.51"/><path d="M1897,741L1420,766L1844,1116Z" fill="#705e3e" stroke="#705e3e" stroke-width="1.51"/><path d="M2222,319L1897,741L2112,831Z" fill="#987e49" stroke="#987e49" stroke-width="1.51"/><path d="M1650,1241L1592,1421L2077,1459Z" fill="#76736e" stroke="#76736e" stroke-width="1.51"/><path d="M1385,1101L1592,1421L1650,1241Z" fill="#7b6e5a" stroke="#7b6e5a" stroke-width="1.51"/><path d="M2077,1459L2428,1388L2054,1174Z" fill="#787d81" stroke="#787d81" stroke-width="1.51"/><path d="M1592,1421L2031,1583L2077,1459Z" fill="#7b7d81" stroke="#7b7d81" stroke-width="1.51"/><path d="M2077,1459L2291,1658L2428,1388Z" fill="#9ea1a5" stroke="#9ea1a5" stroke-width="1.51"/><path d="M1829,470L1420,766L1897,741Z" fill="#98793a" stroke="#98793a" stroke-width="1.51"/><path d="M2428,1388L2604,1042L2364,1103Z" fill="#777c80" stroke="#777c80" stroke-width="1.51"/><path d="M1420,766L1385,1101L1844,1116Z" fill="#6c5b3e" stroke="#6c5b3e" stroke-width="1.51"/><path d="M2533,441L2222,319L2112,831Z" fill="#bf9e5c" stroke="#bf9e5c" stroke-width="1.51"/><path d="M2533,441L2112,831L2524,905Z" fill="#a89067" stroke="#a89067" stroke-width="1.51"/><path d="M2031,1583L2291,1658L2077,1459Z" fill="#9c9fa3" stroke="#9c9fa3" stroke-width="1.51"/><path d="M2428,1388L2768,1509L2604,1042Z" fill="#9ea2a5" stroke="#9ea2a5" stroke-width="1.51"/><path d="M2604,1042L2685,721L2524,905Z" fill="#9d917c" stroke="#9d917c" stroke-width="1.51"/><path d="M1592,1421L1716,1733L2031,1583Z" fill="#9a9790" stroke="#9a9790" stroke-width="1.51"/><path d="M2031,1583L2216,1972L2291,1658Z" fill="#97a2a8" stroke="#97a2a8" stroke-width="1.51"/><path d="M1228,1454L1541,1591L1592,1421Z" fill="#b09e80" stroke="#b09e80" stroke-width="1.51"/><path d="M2685,721L2533,441L2524,905Z" fill="#c4a979" stroke="#c4a979" stroke-width="1.51"/><path d="M1541,1591L1716,1733L1592,1421Z" fill="#afa390" stroke="#afa390" stroke-width="1.51"/><path d="M1829,470L1491,343L1420,766Z" fill="#ba9134" stroke="#ba9134" stroke-width="1.51"/><path d="M1614,39L1491,343L1829,470Z" fill="#8f7e53" stroke="#8f7e53" stroke-width="1.51"/><path d="M1420,766L1196,703L1385,1101Z" fill="#9b7b39" stroke="#9b7b39" stroke-width="1.51"/><path d="M1385,1101L1228,1454L1592,1421Z" fill="#978565" stroke="#978565" stroke-width="1.51"/><path d="M1237,523L1196,703L1420,766Z" fill="#c4982f" stroke="#c4982f" stroke-width="1.51"/><path d="M2222,319L2184,160L1829,470Z" fill="#867c5f" stroke="#867c5f" stroke-width="1.51"/><path d="M2504,166L2184,160L2222,319Z" fill="#8b8c7e" stroke="#8b8c7e" stroke-width="1.51"/><path d="M1491,343L1237,523L1420,766Z" fill="#d0a02b" stroke="#d0a02b" stroke-width="1.51"/><path d="M1015,1168L1228,1454L1385,1101Z" fill="#9d8456" stroke="#9d8456" stroke-width="1.51"/><path d="M1541,1591L1627,1916L1716,1733Z" fill="#a09b8d" stroke="#a09b8d" stroke-width="1.51"/><path d="M2734,1643L2768,1509L2428,1388Z" fill="#c8cbcd" stroke="#c8cbcd" stroke-width="1.51"/><path d="M2604,1042L3099,804L2685,721Z" fill="#b8a88f" stroke="#b8a88f" stroke-width="1.51"/><path d="M2852,178L2504,166L2533,441Z" fill="#b6b199" stroke="#b6b199" stroke-width="1.51"/><path d="M2533,441L2504,166L2222,319Z" fill="#a99e7f" stroke="#a99e7f" stroke-width="1.51"/><path d="M2685,721L2827,497L2533,441Z" fill="#ebc580" stroke="#ebc580" stroke-width="1.51"/><path d="M3099,804L2827,497L2685,721Z" fill="#e7c994" stroke="#e7c994" stroke-width="1.51"/><path d="M2414,1997L2734,1643L2291,1658Z" fill="#b2bdc4" stroke="#b2bdc4" stroke-width="1.51"/><path d="M2291,1658L2734,1643L2428,1388Z" fill="#c1c4c6" stroke="#c1c4c6" stroke-width="1.51"/><path d="M2328,-56L2053,-4L2184,160Z" fill="#587784" stroke="#587784" stroke-width="1.51"/><path d="M2184,160L2053,-4L1829,470Z" fill="#6d7164" stroke="#6d7164" stroke-width="1.51"/><path d="M1196,703L1015,1168L1385,1101Z" fill="#90743a" stroke="#90743a" stroke-width="1.51"/><path d="M863,1213L1015,1168L728,787Z" fill="#957a3f" stroke="#957a3f" stroke-width="1.51"/><path d="M1716,1733L2216,1972L2031,1583Z" fill="#7f8b93" stroke="#7f8b93" stroke-width="1.51"/><path d="M1327,1937L1627,1916L1541,1591Z" fill="#a49e88" stroke="#a49e88" stroke-width="1.51"/><path d="M1627,1916L2216,1972L1716,1733Z" fill="#6f7e84" stroke="#6f7e84" stroke-width="1.51"/><path d="M2053,-4L1614,39L1829,470Z" fill="#666b5f" stroke="#666b5f" stroke-width="1.51"/><path d="M1491,343L1122,256L1237,523Z" fill="#c39e42" stroke="#c39e42" stroke-width="1.51"/><path d="M3063,1239L2991,1203L2928,1587Z" fill="#b6bdc1" stroke="#b6bdc1" stroke-width="1.51"/><path d="M2768,1509L2991,1203L2604,1042Z" fill="#a6a9ac" stroke="#a6a9ac" stroke-width="1.51"/><path d="M1614,39L1497,74L1491,343Z" fill="#857f5f" stroke="#857f5f" stroke-width="1.51"/><path d="M2216,1972L2414,1997L2291,1658Z" fill="#8d9fa9" stroke="#8d9fa9" stroke-width="1.51"/><path d="M2647,2125L2414,1997L2629,2230Z" fill="#7d9faf" stroke="#7d9faf" stroke-width="1.51"/><path d="M2504,166L2328,-56L2184,160Z" fill="#74898d" stroke="#74898d" stroke-width="1.51"/><path d="M1711,-171L1522,-103L1614,39Z" fill="#5f706e" stroke="#5f706e" stroke-width="1.51"/><path d="M2675,-136L2328,-56L2504,166Z" fill="#6f94a6" stroke="#6f94a6" stroke-width="1.51"/><path d="M2991,1203L3099,804L2604,1042Z" fill="#9d9b97" stroke="#9d9b97" stroke-width="1.51"/><path d="M2928,1587L2991,1203L2768,1509Z" fill="#d1d4d6" stroke="#d1d4d6" stroke-width="1.51"/><path d="M2734,1643L2928,1587L2768,1509Z" fill="#e8eaeb" stroke="#e8eaeb" stroke-width="1.51"/><path d="M2869,1899L2928,1587L2734,1643Z" fill="#e4eaee" stroke="#e4eaee" stroke-width="1.51"/><path d="M3189,1203L3099,804L2991,1203Z" fill="#7e888e" stroke="#7e888e" stroke-width="1.51"/><path d="M1228,1454L1091,1669L1541,1591Z" fill="#d3ba8e" stroke="#d3ba8e" stroke-width="1.51"/><path d="M947,1574L1091,1669L1228,1454Z" fill="#eac88a" stroke="#eac88a" stroke-width="1.51"/><path d="M730,404L728,787L1196,703Z" fill="#e7b228" stroke="#e7b228" stroke-width="1.51"/><path d="M1497,74L1122,256L1491,343Z" fill="#a38f56" stroke="#a38f56" stroke-width="1.51"/><path d="M1015,1168L947,1574L1228,1454Z" fill="#cbab6e" stroke="#cbab6e" stroke-width="1.51"/><path d="M728,787L1015,1168L1196,703Z" fill="#ba9132" stroke="#ba9132" stroke-width="1.51"/><path d="M1627,1916L1698,2326L2216,1972Z" fill="#4f6a75" stroke="#4f6a75" stroke-width="1.51"/><path d="M1091,1669L1327,1937L1541,1591Z" fill="#c7b48d" stroke="#c7b48d" stroke-width="1.51"/><path d="M2827,497L2852,178L2533,441Z" fill="#d7c298" stroke="#d7c298" stroke-width="1.51"/><path d="M3108,555L2852,178L2827,497Z" fill="#e8d1a0" stroke="#e8d1a0" stroke-width="1.51"/><path d="M1497,74L1022,-82L1122,256Z" fill="#9d9264" stroke="#9d9264" stroke-width="1.51"/><path d="M1614,39L1522,-103L1497,74Z" fill="#69756d" stroke="#69756d" stroke-width="1.51"/><path d="M1711,-171L1614,39L2053,-4Z" fill="#48646e" stroke="#48646e" stroke-width="1.51"/><path d="M1692,-481L1711,-171L2044,-594Z" fill="#45636e" stroke="#45636e" stroke-width="1.51"/><path d="M3099,804L3108,555L2827,497Z" fill="#e7c98f" stroke="#e7c98f" stroke-width="1.51"/><path d="M1091,1669L1240,2048L1327,1937Z" fill="#baab81" stroke="#baab81" stroke-width="1.51"/><path d="M863,1213L947,1574L1015,1168Z" fill="#c5a361" stroke="#c5a361" stroke-width="1.51"/><path d="M3063,1239L3189,1203L2991,1203Z" fill="#96a0a6" stroke="#96a0a6" stroke-width="1.51"/><path d="M3435,832L3304,449L3108,555Z" fill="#d0b983" stroke="#d0b983" stroke-width="1.51"/><path d="M3278,1383L3189,1203L3063,1239Z" fill="#98a4ac" stroke="#98a4ac" stroke-width="1.51"/><path d="M2928,1587L3150,1635L3063,1239Z" fill="#cdd4d9" stroke="#cdd4d9" stroke-width="1.51"/><path d="M2414,1997L2869,1899L2734,1643Z" fill="#b9c9d1" stroke="#b9c9d1" stroke-width="1.51"/><path d="M730,404L1196,703L1237,523Z" fill="#f4b916" stroke="#f4b916" stroke-width="1.51"/><path d="M863,1213L710,1389L947,1574Z" fill="#caae74" stroke="#caae74" stroke-width="1.51"/><path d="M2852,178L2837,8L2504,166Z" fill="#a4b2b1" stroke="#a4b2b1" stroke-width="1.51"/><path d="M2328,-56L2427,-361L2053,-4Z" fill="#577d8f" stroke="#577d8f" stroke-width="1.51"/><path d="M3265,75L2837,8L2852,178Z" fill="#a2b9be" stroke="#a2b9be" stroke-width="1.51"/><path d="M1553,2324L1698,2326L1627,1916Z" fill="#5e706e" stroke="#5e706e" stroke-width="1.51"/><path d="M692,1928L1240,2048L1091,1669Z" fill="#d3bb80" stroke="#d3bb80" stroke-width="1.51"/><path d="M2414,1997L2647,2125L2869,1899Z" fill="#99b3c0" stroke="#99b3c0" stroke-width="1.51"/><path d="M2629,2230L2414,1997L2407,2454Z" fill="#6d92a4" stroke="#6d92a4" stroke-width="1.51"/><path d="M2837,8L2675,-136L2504,166Z" fill="#84a6b5" stroke="#84a6b5" stroke-width="1.51"/><path d="M2869,1899L3150,1635L2928,1587Z" fill="#dee8ed" stroke="#dee8ed" stroke-width="1.51"/><path d="M3346,1892L3150,1635L2869,1899Z" fill="#bed3de" stroke="#bed3de" stroke-width="1.51"/><path d="M476,947L710,1389L863,1213Z" fill="#94835b" stroke="#94835b" stroke-width="1.51"/><path d="M947,1574L692,1928L1091,1669Z" fill="#eece8e" stroke="#eece8e" stroke-width="1.51"/><path d="M3435,832L3108,555L3099,804Z" fill="#bdad87" stroke="#bdad87" stroke-width="1.51"/><path d="M3150,1635L3278,1383L3063,1239Z" fill="#b4c0c7" stroke="#b4c0c7" stroke-width="1.51"/><path d="M1553,2324L1627,1916L1327,1937Z" fill="#7d8375" stroke="#7d8375" stroke-width="1.51"/><path d="M1122,256L730,404L1237,523Z" fill="#e2b338" stroke="#e2b338" stroke-width="1.51"/><path d="M728,787L476,947L863,1213Z" fill="#947d48" stroke="#947d48" stroke-width="1.51"/><path d="M717,17L730,404L1122,256Z" fill="#c7aa58" stroke="#c7aa58" stroke-width="1.51"/><path d="M2647,2125L3123,2296L2869,1899Z" fill="#a1c1d0" stroke="#a1c1d0" stroke-width="1.51"/><path d="M2407,2454L2414,1997L2216,1972Z" fill="#638798" stroke="#638798" stroke-width="1.51"/><path d="M1240,2048L1553,2324L1327,1937Z" fill="#858771" stroke="#858771" stroke-width="1.51"/><path d="M2675,-136L2427,-361L2328,-56Z" fill="#6d92a3" stroke="#6d92a3" stroke-width="1.51"/><path d="M2584,-601L2427,-361L2675,-136Z" fill="#759aac" stroke="#759aac" stroke-width="1.51"/><path d="M3435,832L3099,804L3189,1203Z" fill="#8c8f88" stroke="#8c8f88" stroke-width="1.51"/><path d="M3108,555L3304,449L2852,178Z" fill="#d7c69a" stroke="#d7c69a" stroke-width="1.51"/><path d="M1444,-500L1522,-103L1711,-171Z" fill="#66746e" stroke="#66746e" stroke-width="1.51"/><path d="M1444,-500L1022,-82L1522,-103Z" fill="#81856d" stroke="#81856d" stroke-width="1.51"/><path d="M1522,-103L1022,-82L1497,74Z" fill="#80836d" stroke="#80836d" stroke-width="1.51"/><path d="M3615,1143L3435,832L3189,1203Z" fill="#637780" stroke="#637780" stroke-width="1.51"/><path d="M1760,2512L2042,2447L1698,2326Z" fill="#42626e" stroke="#42626e" stroke-width="1.51"/><path d="M1698,2326L2042,2447L2216,1972Z" fill="#3b6274" stroke="#3b6274" stroke-width="1.51"/><path d="M2044,-594L1711,-171L2053,-4Z" fill="#365e6f" stroke="#365e6f" stroke-width="1.51"/><path d="M421,524L519,702L730,404Z" fill="#ddb244" stroke="#ddb244" stroke-width="1.51"/><path d="M730,404L519,702L728,787Z" fill="#d4aa3f" stroke="#d4aa3f" stroke-width="1.51"/><path d="M519,702L476,947L728,787Z" fill="#aa8f4c" stroke="#aa8f4c" stroke-width="1.51"/><path d="M2042,2447L2407,2454L2216,1972Z" fill="#52798a" stroke="#52798a" stroke-width="1.51"/><path d="M2042,2447L2164,2557L2407,2454Z" fill="#517788" stroke="#517788" stroke-width="1.51"/><path d="M1553,2324L1760,2512L1698,2326Z" fill="#586d6e" stroke="#586d6e" stroke-width="1.51"/><path d="M1318,2701L1760,2512L1553,2324Z" fill="#68756e" stroke="#68756e" stroke-width="1.51"/><path d="M3265,75L2957,-237L2837,8Z" fill="#88b2c5" stroke="#88b2c5" stroke-width="1.51"/><path d="M2837,8L2957,-237L2675,-136Z" fill="#91b5c6" stroke="#91b5c6" stroke-width="1.51"/><path d="M3304,449L3265,75L2852,178Z" fill="#b4b8a8" stroke="#b4b8a8" stroke-width="1.51"/><path d="M3465,12L3265,75L3304,449Z" fill="#94a9a5" stroke="#94a9a5" stroke-width="1.51"/><path d="M1760,2512L2164,2557L2042,2447Z" fill="#3b6274" stroke="#3b6274" stroke-width="1.51"/><path d="M2427,-361L2044,-594L2053,-4Z" fill="#4e7486" stroke="#4e7486" stroke-width="1.51"/><path d="M2584,-601L2044,-594L2427,-361Z" fill="#608597" stroke="#608597" stroke-width="1.51"/><path d="M1692,-481L1444,-500L1711,-171Z" fill="#5f706e" stroke="#5f706e" stroke-width="1.51"/><path d="M2044,-594L1444,-500L1692,-481Z" fill="#51696e" stroke="#51696e" stroke-width="1.51"/><path d="M710,1389L521,1586L947,1574Z" fill="#d8c190" stroke="#d8c190" stroke-width="1.51"/><path d="M1240,2048L1007,2264L1553,2324Z" fill="#89896d" stroke="#89896d" stroke-width="1.51"/><path d="M424,1381L521,1586L710,1389Z" fill="#baaf8f" stroke="#baaf8f" stroke-width="1.51"/><path d="M1022,-82L717,17L1122,256Z" fill="#b6a364" stroke="#b6a364" stroke-width="1.51"/><path d="M769,-132L717,17L1022,-82Z" fill="#a09b72" stroke="#a09b72" stroke-width="1.51"/><path d="M521,1586L692,1928L947,1574Z" fill="#e0cb9c" stroke="#e0cb9c" stroke-width="1.51"/><path d="M692,1928L1007,2264L1240,2048Z" fill="#b7a771" stroke="#b7a771" stroke-width="1.51"/><path d="M476,947L424,1381L710,1389Z" fill="#90886c" stroke="#90886c" stroke-width="1.51"/><path d="M3278,1383L3615,1143L3189,1203Z" fill="#81949e" stroke="#81949e" stroke-width="1.51"/><path d="M3435,832L3651,701L3304,449Z" fill="#b5a77c" stroke="#b5a77c" stroke-width="1.51"/><path d="M3150,1635L3566,1380L3278,1383Z" fill="#adbfc8" stroke="#adbfc8" stroke-width="1.51"/><path d="M3597,1845L3566,1380L3150,1635Z" fill="#c0d4df" stroke="#c0d4df" stroke-width="1.51"/><path d="M3346,1892L2869,1899L3123,2296Z" fill="#97bbcc" stroke="#97bbcc" stroke-width="1.51"/><path d="M3123,2296L2647,2125L2629,2230Z" fill="#8eb2c4" stroke="#8eb2c4" stroke-width="1.51"/><path d="M717,17L534,264L730,404Z" fill="#b6a364" stroke="#b6a364" stroke-width="1.51"/><path d="M519,702L314,1002L476,947Z" fill="#918256" stroke="#918256" stroke-width="1.51"/><path d="M476,947L305,1243L424,1381Z" fill="#7a7b6b" stroke="#7a7b6b" stroke-width="1.51"/><path d="M3566,1380L3615,1143L3278,1383Z" fill="#7f97a3" stroke="#7f97a3" stroke-width="1.51"/><path d="M534,264L421,524L730,404Z" fill="#c8aa57" stroke="#c8aa57" stroke-width="1.51"/><path d="M673,-202L769,-132L873,-539Z" fill="#9a9976" stroke="#9a9976" stroke-width="1.51"/><path d="M717,17L216,-168L534,264Z" fill="#839282" stroke="#839282" stroke-width="1.51"/><path d="M116,827L314,1002L519,702Z" fill="#8d835c" stroke="#8d835c" stroke-width="1.51"/><path d="M3615,1143L3651,701L3435,832Z" fill="#7b8279" stroke="#7b8279" stroke-width="1.51"/><path d="M2957,-237L2584,-601L2675,-136Z" fill="#88acbd" stroke="#88acbd" stroke-width="1.51"/><path d="M314,1002L305,1243L476,947Z" fill="#66695b" stroke="#66695b" stroke-width="1.51"/><path d="M422,2178L519,1987L195,2136Z" fill="#779390" stroke="#779390" stroke-width="1.51"/><path d="M521,1586L519,1987L692,1928Z" fill="#bab79a" stroke="#bab79a" stroke-width="1.51"/><path d="M2744,2602L2846,2477L2629,2230Z" fill="#88acbd" stroke="#88acbd" stroke-width="1.51"/><path d="M2744,2602L2629,2230L2407,2454Z" fill="#799daf" stroke="#799daf" stroke-width="1.51"/><path d="M2846,2477L3123,2296L2629,2230Z" fill="#95b9ca" stroke="#95b9ca" stroke-width="1.51"/><path d="M2957,-237L3067,-523L2584,-601Z" fill="#96bacb" stroke="#96bacb" stroke-width="1.51"/><path d="M3265,75L3288,-169L2957,-237Z" fill="#79a9be" stroke="#79a9be" stroke-width="1.51"/><path d="M3465,12L3288,-169L3265,75Z" fill="#669eb6" stroke="#669eb6" stroke-width="1.51"/><path d="M3651,701L3680,532L3304,449Z" fill="#c2af77" stroke="#c2af77" stroke-width="1.51"/><path d="M3955,795L3680,532L3651,701Z" fill="#979270" stroke="#979270" stroke-width="1.51"/><path d="M421,524L297,542L519,702Z" fill="#c8a751" stroke="#c8a751" stroke-width="1.51"/><path d="M314,1002L-150,997L305,1243Z" fill="#4b6166" stroke="#4b6166" stroke-width="1.51"/><path d="M135,289L297,542L421,524Z" fill="#b8a463" stroke="#b8a463" stroke-width="1.51"/><path d="M135,289L421,524L534,264Z" fill="#b0a168" stroke="#b0a168" stroke-width="1.51"/><path d="M3680,532L3465,12L3304,449Z" fill="#a7a98f" stroke="#a7a98f" stroke-width="1.51"/><path d="M769,-132L673,-202L717,17Z" fill="#949779" stroke="#949779" stroke-width="1.51"/><path d="M873,-539L769,-132L1022,-82Z" fill="#a59d6f" stroke="#a59d6f" stroke-width="1.51"/><path d="M692,1928L816,2424L1007,2264Z" fill="#a09b72" stroke="#a09b72" stroke-width="1.51"/><path d="M519,1987L521,1586L100,1805Z" fill="#aab5a9" stroke="#aab5a9" stroke-width="1.51"/><path d="M3396,2479L3414,2444L3123,2296Z" fill="#69a0b7" stroke="#69a0b7" stroke-width="1.51"/><path d="M2464,2755L2744,2602L2407,2454Z" fill="#7398a9" stroke="#7398a9" stroke-width="1.51"/><path d="M997,2500L1088,2525L1007,2264Z" fill="#a49a6b" stroke="#a49a6b" stroke-width="1.51"/><path d="M1007,2264L1088,2525L1553,2324Z" fill="#8f8d6d" stroke="#8f8d6d" stroke-width="1.51"/><path d="M1760,2512L2464,2755L2164,2557Z" fill="#496f81" stroke="#496f81" stroke-width="1.51"/><path d="M2164,2557L2464,2755L2407,2454Z" fill="#5f8596" stroke="#5f8596" stroke-width="1.51"/><path d="M3615,1143L3790,1094L3651,701Z" fill="#5d7174" stroke="#5d7174" stroke-width="1.51"/><path d="M3566,1380L3790,1094L3615,1143Z" fill="#5d7c8b" stroke="#5d7c8b" stroke-width="1.51"/><path d="M4059,1482L3790,1094L3566,1380Z" fill="#628798" stroke="#628798" stroke-width="1.51"/><path d="M3597,1845L3150,1635L3346,1892Z" fill="#a9c5d4" stroke="#a9c5d4" stroke-width="1.51"/><path d="M816,2424L997,2500L1007,2264Z" fill="#aa9f6c" stroke="#aa9f6c" stroke-width="1.51"/><path d="M3712,1895L3597,1845L3735,2352Z" fill="#5997b1" stroke="#5997b1" stroke-width="1.51"/><path d="M1444,-500L1051,-572L1022,-82Z" fill="#94906c" stroke="#94906c" stroke-width="1.51"/><path d="M2044,-594L1051,-572L1444,-500Z" fill="#6c786e" stroke="#6c786e" stroke-width="1.51"/><path d="M1318,2701L2464,2755L1760,2512Z" fill="#40616e" stroke="#40616e" stroke-width="1.51"/><path d="M3512,-240L3283,-314L3288,-169Z" fill="#649db5" stroke="#649db5" stroke-width="1.51"/><path d="M3288,-169L3283,-314L2957,-237Z" fill="#78a8be" stroke="#78a8be" stroke-width="1.51"/><path d="M1088,2525L1318,2701L1553,2324Z" fill="#83856d" stroke="#83856d" stroke-width="1.51"/><path d="M656,2763L1318,2701L1088,2525Z" fill="#a59b6b" stroke="#a59b6b" stroke-width="1.51"/><path d="M3283,-314L3067,-523L2957,-237Z" fill="#80adc1" stroke="#80adc1" stroke-width="1.51"/><path d="M422,2178L816,2424L692,1928Z" fill="#8c957d" stroke="#8c957d" stroke-width="1.51"/><path d="M997,2500L656,2763L1088,2525Z" fill="#a79e6e" stroke="#a79e6e" stroke-width="1.51"/><path d="M297,542L116,827L519,702Z" fill="#ab965a" stroke="#ab965a" stroke-width="1.51"/><path d="M100,1805L521,1586L424,1381Z" fill="#bec2b3" stroke="#bec2b3" stroke-width="1.51"/><path d="M-6,753L116,827L297,542Z" fill="#978e65" stroke="#978e65" stroke-width="1.51"/><path d="M1051,-572L873,-539L1022,-82Z" fill="#a99e6b" stroke="#a99e6b" stroke-width="1.51"/><path d="M3735,2352L3597,1845L3346,1892Z" fill="#689fb6" stroke="#689fb6" stroke-width="1.51"/><path d="M3597,1845L3712,1895L3566,1380Z" fill="#9dbfcf" stroke="#9dbfcf" stroke-width="1.51"/><path d="M3414,2444L3346,1892L3123,2296Z" fill="#6ba1b8" stroke="#6ba1b8" stroke-width="1.51"/><path d="M3283,-314L3569,-604L3067,-523Z" fill="#6aa0b8" stroke="#6aa0b8" stroke-width="1.51"/><path d="M3465,12L3512,-240L3288,-169Z" fill="#5c99b2" stroke="#5c99b2" stroke-width="1.51"/><path d="M3840,-183L3512,-240L3465,12Z" fill="#458eaa" stroke="#458eaa" stroke-width="1.51"/><path d="M519,1987L422,2178L692,1928Z" fill="#96a08c" stroke="#96a08c" stroke-width="1.51"/><path d="M100,1805L424,1381L-63,1660Z" fill="#abbfc2" stroke="#abbfc2" stroke-width="1.51"/><path d="M3680,532L3833,220L3465,12Z" fill="#879a90" stroke="#879a90" stroke-width="1.51"/><path d="M3790,1094L3955,795L3651,701Z" fill="#6d786f" stroke="#6d786f" stroke-width="1.51"/><path d="M4095,781L3955,795L3790,1094Z" fill="#64736e" stroke="#64736e" stroke-width="1.51"/><path d="M216,-168L717,17L673,-202Z" fill="#809183" stroke="#809183" stroke-width="1.51"/><path d="M216,-168L135,289L534,264Z" fill="#7f9184" stroke="#7f9184" stroke-width="1.51"/><path d="M4006,356L3833,220L3680,532Z" fill="#8e967d" stroke="#8e967d" stroke-width="1.51"/><path d="M-37,340L-6,753L297,542Z" fill="#b3a266" stroke="#b3a266" stroke-width="1.51"/><path d="M116,827L-150,997L314,1002Z" fill="#636f69" stroke="#636f69" stroke-width="1.51"/><path d="M3396,2479L2846,2477L2744,2602Z" fill="#8bb4c6" stroke="#8bb4c6" stroke-width="1.51"/><path d="M3396,2479L3123,2296L2846,2477Z" fill="#7dacc1" stroke="#7dacc1" stroke-width="1.51"/><path d="M3980,1834L4059,1482L3712,1895Z" fill="#81aec2" stroke="#81aec2" stroke-width="1.51"/><path d="M2464,2755L3396,2479L2744,2602Z" fill="#95b9ca" stroke="#95b9ca" stroke-width="1.51"/><path d="M-63,1660L424,1381L305,1243Z" fill="#919f9d" stroke="#919f9d" stroke-width="1.51"/><path d="M3955,795L4006,356L3680,532Z" fill="#a89d6b" stroke="#a89d6b" stroke-width="1.51"/><path d="M3833,220L3840,-183L3465,12Z" fill="#3d88a3" stroke="#3d88a3" stroke-width="1.51"/><path d="M3955,795L4137,501L4006,356Z" fill="#aa9e6b" stroke="#aa9e6b" stroke-width="1.51"/><path d="M4315,996L4095,781L3790,1094Z" fill="#556b6e" stroke="#556b6e" stroke-width="1.51"/><path d="M249,-427L216,-168L673,-202Z" fill="#6c8c8c" stroke="#6c8c8c" stroke-width="1.51"/><path d="M135,289L-37,340L297,542Z" fill="#9f9b73" stroke="#9f9b73" stroke-width="1.51"/><path d="M3712,1895L4059,1482L3566,1380Z" fill="#97b8c9" stroke="#97b8c9" stroke-width="1.51"/><path d="M3980,1834L3712,1895L3995,2035Z" fill="#5d9ab3" stroke="#5d9ab3" stroke-width="1.51"/><path d="M26,64L-37,340L135,289Z" fill="#768f88" stroke="#768f88" stroke-width="1.51"/><path d="M100,1805L195,2136L519,1987Z" fill="#7e9da0" stroke="#7e9da0" stroke-width="1.51"/><path d="M422,2178L353,2374L816,2424Z" fill="#7f9184" stroke="#7f9184" stroke-width="1.51"/><path d="M816,2424L656,2763L997,2500Z" fill="#9f9b73" stroke="#9f9b73" stroke-width="1.51"/><path d="M-270,1080L-150,997L-353,705Z" fill="#5b6e6e" stroke="#5b6e6e" stroke-width="1.51"/><path d="M-6,753L-150,997L116,827Z" fill="#6a776e" stroke="#6a776e" stroke-width="1.51"/><path d="M100,1805L59,1943L195,2136Z" fill="#6a99a9" stroke="#6a99a9" stroke-width="1.51"/><path d="M195,2136L353,2374L422,2178Z" fill="#658a8e" stroke="#658a8e" stroke-width="1.51"/><path d="M195,2136L156,2502L353,2374Z" fill="#578793" stroke="#578793" stroke-width="1.51"/><path d="M-63,1660L59,1943L100,1805Z" fill="#7aa8bb" stroke="#7aa8bb" stroke-width="1.51"/><path d="M3735,2352L3346,1892L3414,2444Z" fill="#5395af" stroke="#5395af" stroke-width="1.51"/><path d="M-202,1443L-63,1660L305,1243Z" fill="#799cac" stroke="#799cac" stroke-width="1.51"/><path d="M216,-168L26,64L135,289Z" fill="#588793" stroke="#588793" stroke-width="1.51"/><path d="M4337,14L3840,-183L3833,220Z" fill="#29819e" stroke="#29819e" stroke-width="1.51"/><path d="M3512,-240L3569,-604L3283,-314Z" fill="#5897b1" stroke="#5897b1" stroke-width="1.51"/><path d="M4176,-316L3890,-444L3840,-183Z" fill="#1d809f" stroke="#1d809f" stroke-width="1.51"/><path d="M4095,781L4137,501L3955,795Z" fill="#8d8c6d" stroke="#8d8c6d" stroke-width="1.51"/><path d="M4411,914L4137,501L4095,781Z" fill="#85876d" stroke="#85876d" stroke-width="1.51"/><path d="M3780,2405L3735,2352L3743,2519Z" fill="#2f85a3" stroke="#2f85a3" stroke-width="1.51"/><path d="M216,-168L14,-274L26,64Z" fill="#3a829b" stroke="#3a829b" stroke-width="1.51"/><path d="M873,-539L403,-563L673,-202Z" fill="#8d957d" stroke="#8d957d" stroke-width="1.51"/><path d="M1051,-572L403,-563L873,-539Z" fill="#9a9976" stroke="#9a9976" stroke-width="1.51"/><path d="M2044,-594L403,-563L1051,-572Z" fill="#94916c" stroke="#94916c" stroke-width="1.51"/><path d="M353,2374L656,2763L816,2424Z" fill="#88947f" stroke="#88947f" stroke-width="1.51"/><path d="M1318,2701L656,2763L2464,2755Z" fill="#707a6e" stroke="#707a6e" stroke-width="1.51"/><path d="M3890,-444L3569,-604L3512,-240Z" fill="#3e8ba7" stroke="#3e8ba7" stroke-width="1.51"/><path d="M3067,-523L3569,-604L2584,-601Z" fill="#83afc3" stroke="#83afc3" stroke-width="1.51"/><path d="M-150,997L-202,1443L305,1243Z" fill="#4e7586" stroke="#4e7586" stroke-width="1.51"/><path d="M-373,2035L-92,2221L59,1943Z" fill="#3c8aa6" stroke="#3c8aa6" stroke-width="1.51"/><path d="M403,-563L249,-427L673,-202Z" fill="#758e88" stroke="#758e88" stroke-width="1.51"/><path d="M4059,1482L4199,1408L3790,1094Z" fill="#618698" stroke="#618698" stroke-width="1.51"/><path d="M4235,1782L4199,1408L4059,1482Z" fill="#8bafc0" stroke="#8bafc0" stroke-width="1.51"/><path d="M4235,1782L4059,1482L3980,1834Z" fill="#89b2c5" stroke="#89b2c5" stroke-width="1.51"/><path d="M3735,2352L3995,2035L3712,1895Z" fill="#3888a5" stroke="#3888a5" stroke-width="1.51"/><path d="M-150,997L-270,1080L-202,1443Z" fill="#456b7d" stroke="#456b7d" stroke-width="1.51"/><path d="M-353,705L-150,997L-6,753Z" fill="#737c6e" stroke="#737c6e" stroke-width="1.51"/><path d="M-314,504L-6,753L-37,340Z" fill="#ab9f6c" stroke="#ab9f6c" stroke-width="1.51"/><path d="M3735,2352L3780,2405L3995,2035Z" fill="#1e809f" stroke="#1e809f" stroke-width="1.51"/><path d="M3743,2519L3735,2352L3414,2444Z" fill="#428ca8" stroke="#428ca8" stroke-width="1.51"/><path d="M3743,2519L3414,2444L3396,2479Z" fill="#5193ae" stroke="#5193ae" stroke-width="1.51"/><path d="M4199,1408L4315,996L3790,1094Z" fill="#446a7c" stroke="#446a7c" stroke-width="1.51"/><path d="M3780,2405L4196,2195L3995,2035Z" fill="#1d809f" stroke="#1d809f" stroke-width="1.51"/><path d="M2464,2755L3743,2519L3396,2479Z" fill="#75a7bd" stroke="#75a7bd" stroke-width="1.51"/><path d="M-352,-53L-314,504L-37,340Z" fill="#788f87" stroke="#788f87" stroke-width="1.51"/><path d="M249,-427L14,-274L216,-168Z" fill="#4a8597" stroke="#4a8597" stroke-width="1.51"/><path d="M-74,-456L14,-274L249,-427Z" fill="#34829c" stroke="#34829c" stroke-width="1.51"/><path d="M-352,-53L-37,340L26,64Z" fill="#538694" stroke="#538694" stroke-width="1.51"/><path d="M-314,504L-353,705L-6,753Z" fill="#95916c" stroke="#95916c" stroke-width="1.51"/><path d="M-270,1080L-468,1315L-202,1443Z" fill="#587e8f" stroke="#587e8f" stroke-width="1.51"/><path d="M3840,-183L3890,-444L3512,-240Z" fill="#3085a3" stroke="#3085a3" stroke-width="1.51"/><path d="M4337,14L3833,220L4006,356Z" fill="#698b8d" stroke="#698b8d" stroke-width="1.51"/><path d="M4337,14L4006,356L4137,501Z" fill="#7e9184" stroke="#7e9184" stroke-width="1.51"/><path d="M4368,1950L4235,1782L3995,2035Z" fill="#5d9ab2" stroke="#5d9ab2" stroke-width="1.51"/><path d="M3995,2035L4235,1782L3980,1834Z" fill="#659eb6" stroke="#659eb6" stroke-width="1.51"/><path d="M4440,1090L4411,914L4315,996Z" fill="#4a666e" stroke="#4a666e" stroke-width="1.51"/><path d="M353,2374L156,2502L656,2763Z" fill="#6e8c8b" stroke="#6e8c8b" stroke-width="1.51"/><path d="M-92,2221L156,2502L195,2136Z" fill="#3a839b" stroke="#3a839b" stroke-width="1.51"/><path d="M-92,2221L195,2136L59,1943Z" fill="#4188a1" stroke="#4188a1" stroke-width="1.51"/><path d="M4440,1090L4315,996L4199,1408Z" fill="#436a7c" stroke="#436a7c" stroke-width="1.51"/><path d="M4315,996L4411,914L4095,781Z" fill="#62726e" stroke="#62726e" stroke-width="1.51"/><path d="M-453,1555L-63,1660L-202,1443Z" fill="#8aafc0" stroke="#8aafc0" stroke-width="1.51"/><path d="M-373,2035L59,1943L-63,1660Z" fill="#669eb6" stroke="#669eb6" stroke-width="1.51"/><path d="M4235,1782L4397,1395L4199,1408Z" fill="#85aabb" stroke="#85aabb" stroke-width="1.51"/><path d="M4397,1395L4440,1090L4199,1408Z" fill="#5b8193" stroke="#5b8193" stroke-width="1.51"/><path d="M-353,705L-468,1315L-270,1080Z" fill="#41616e" stroke="#41616e" stroke-width="1.51"/><path d="M-468,1315L-453,1555L-202,1443Z" fill="#7599ab" stroke="#7599ab" stroke-width="1.51"/><path d="M4026,2560L4196,2195L3780,2405Z" fill="#1d809f" stroke="#1d809f" stroke-width="1.51"/><path d="M4235,1782L4593,1642L4397,1395Z" fill="#94b9c9" stroke="#94b9c9" stroke-width="1.51"/><path d="M14,-274L-352,-53L26,64Z" fill="#1d809f" stroke="#1d809f" stroke-width="1.51"/><path d="M403,-563L-74,-456L249,-427Z" fill="#508695" stroke="#508695" stroke-width="1.51"/><path d="M-92,2221L-12,2530L156,2502Z" fill="#25809e" stroke="#25809e" stroke-width="1.51"/><path d="M156,2502L-12,2530L656,2763Z" fill="#5d8891" stroke="#5d8891" stroke-width="1.51"/><path d="M-354,2572L-12,2530L-92,2221Z" fill="#1d809f" stroke="#1d809f" stroke-width="1.51"/><path d="M4343,-31L4337,14L4515,164Z" fill="#3a839b" stroke="#3a839b" stroke-width="1.51"/><path d="M4515,164L4337,14L4137,501Z" fill="#708d8a" stroke="#708d8a" stroke-width="1.51"/><path d="M4343,-31L4176,-316L3840,-183Z" fill="#1d809f" stroke="#1d809f" stroke-width="1.51"/><path d="M3890,-444L4458,-398L3569,-604Z" fill="#1d809f" stroke="#1d809f" stroke-width="1.51"/><path d="M4337,14L4343,-31L3840,-183Z" fill="#1d809f" stroke="#1d809f" stroke-width="1.51"/><path d="M4515,164L4137,501L4678,474Z" fill="#8f967b" stroke="#8f967b" stroke-width="1.51"/><path d="M4196,2195L4368,1950L3995,2035Z" fill="#3e8aa7" stroke="#3e8aa7" stroke-width="1.51"/><path d="M4397,1395L4593,1642L4440,1090Z" fill="#698fa0" stroke="#698fa0" stroke-width="1.51"/><path d="M-235,-367L-352,-53L14,-274Z" fill="#1d809f" stroke="#1d809f" stroke-width="1.51"/><path d="M-314,504L-501,5L-353,705Z" fill="#949779" stroke="#949779" stroke-width="1.51"/><path d="M-353,705L-501,5L-468,1315Z" fill="#918e6d" stroke="#918e6d" stroke-width="1.51"/><path d="M4196,2195L4487,2319L4368,1950Z" fill="#20809f" stroke="#20809f" stroke-width="1.51"/><path d="M3743,2519L4026,2560L3780,2405Z" fill="#1d809f" stroke="#1d809f" stroke-width="1.51"/><path d="M2464,2755L4026,2560L3743,2519Z" fill="#5d9ab3" stroke="#5d9ab3" stroke-width="1.51"/><path d="M-453,1555L-373,2035L-63,1660Z" fill="#7eadc1" stroke="#7eadc1" stroke-width="1.51"/><path d="M-74,-456L-235,-367L14,-274Z" fill="#1d809f" stroke="#1d809f" stroke-width="1.51"/><path d="M4678,474L4137,501L4411,914Z" fill="#9a946c" stroke="#9a946c" stroke-width="1.51"/><path d="M4343,-31L4530,-239L4176,-316Z" fill="#1d809f" stroke="#1d809f" stroke-width="1.51"/><path d="M-235,-367L-501,5L-352,-53Z" fill="#1d809f" stroke="#1d809f" stroke-width="1.51"/><path d="M-352,-53L-501,5L-314,504Z" fill="#5d8991" stroke="#5d8991" stroke-width="1.51"/><path d="M4440,1090L4678,474L4411,914Z" fill="#717b6d" stroke="#717b6d" stroke-width="1.51"/><path d="M4368,1950L4593,1642L4235,1782Z" fill="#77a8be" stroke="#77a8be" stroke-width="1.51"/><path d="M4670,2135L4593,1642L4368,1950Z" fill="#609bb4" stroke="#609bb4" stroke-width="1.51"/><path d="M4593,1642L4678,474L4440,1090Z" fill="#385d6e" stroke="#385d6e" stroke-width="1.51"/><path d="M-373,2035L-513,2179L-92,2221Z" fill="#2381a0" stroke="#2381a0" stroke-width="1.51"/><path d="M-453,1555L-513,2179L-373,2035Z" fill="#5d9ab2" stroke="#5d9ab2" stroke-width="1.51"/><path d="M-468,1315L-513,2179L-453,1555Z" fill="#8bb4c6" stroke="#8bb4c6" stroke-width="1.51"/><path d="M-501,5L-513,2179L-468,1315Z" fill="#446a7c" stroke="#446a7c" stroke-width="1.51"/><path d="M4678,474L4530,-239L4515,164Z" fill="#588793" stroke="#588793" stroke-width="1.51"/><path d="M4515,164L4530,-239L4343,-31Z" fill="#1d809f" stroke="#1d809f" stroke-width="1.51"/><path d="M4176,-316L4458,-398L3890,-444Z" fill="#1d809f" stroke="#1d809f" stroke-width="1.51"/><path d="M4375,2608L4487,2319L4196,2195Z" fill="#1d809f" stroke="#1d809f" stroke-width="1.51"/><path d="M4530,-239L4458,-398L4176,-316Z" fill="#1d809f" stroke="#1d809f" stroke-width="1.51"/><path d="M-513,2179L-354,2572L-92,2221Z" fill="#1d809f" stroke="#1d809f" stroke-width="1.51"/><path d="M-12,2530L-354,2572L656,2763Z" fill="#3c839a" stroke="#3c839a" stroke-width="1.51"/><path d="M4026,2560L4375,2608L4196,2195Z" fill="#1d809f" stroke="#1d809f" stroke-width="1.51"/><path d="M4630,2714L4375,2608L4026,2560Z" fill="#1d809f" stroke="#1d809f" stroke-width="1.51"/><path d="M4630,2714L4670,2135L4487,2319Z" fill="#1d809f" stroke="#1d809f" stroke-width="1.51"/><path d="M4487,2319L4670,2135L4368,1950Z" fill="#2782a1" stroke="#2782a1" stroke-width="1.51"/><path d="M4593,1642L4670,2135L4678,474Z" fill="#7196a7" stroke="#7196a7" stroke-width="1.51"/><path d="M4375,2608L4630,2714L4487,2319Z" fill="#1d809f" stroke="#1d809f" stroke-width="1.51"/><path d="M2464,2755L4630,2714L4026,2560Z" fill="#3788a5" stroke="#3788a5" stroke-width="1.51"/></svg>